<?xml version="1.0" standalone="no"?><!DOCTYPE svg PUBLIC "-//W3C//DTD SVG 1.1//EN" "http://www.w3.org/Graphics/SVG/1.1/DTD/svg11.dtd"><svg class="icon" width="200px" height="200.00px" viewBox="0 0 1024 1024" version="1.1" xmlns="http://www.w3.org/2000/svg"><path d="M511.4368 798.7712c34.2528 0.128 280.5504-194.7648 280.5504-383.744 0-189.0304-125.6192-290.2272-280.576-290.2272-154.9056 0-280.5248 109.44-280.5248 290.2272 0 180.736 246.272 383.6416 280.5504 383.744z m0-620.7744c110.208 0 227.9424 62.2592 227.9424 237.0304 0 140.416-173.1072 293.4784-227.6608 326.4512-57.2672-35.072-228.224-194.4832-228.224-326.4512 0-141.7472 91.5456-237.0304 227.9424-237.0304z" fill="#C9C9C9" /><path d="M513.024 286.0032c-67.84 0-122.752 55.552-122.752 124.16 0 68.5824 54.912 124.16 122.7264 124.16 67.84 0 122.752-55.552 122.752-124.16 0-68.5824-54.912-124.16-122.752-124.16z m0 195.072c-38.7328 0-70.144-31.7952-70.144-70.912 0-39.168 31.4112-70.9632 70.144-70.9632 38.6304 0 70.1184 31.8208 70.1184 70.9632 0 39.1168-31.5392 70.912-70.144 70.912z m68.5312 415.232h-140.288a26.4704 26.4704 0 0 1-26.2656-26.624c0-14.6944 11.776-26.624 26.2912-26.624h140.288c14.4896 0 26.2912 11.9296 26.2912 26.624 0 14.6944-11.776 26.624-26.3168 26.624z" fill="#C9C9C9" /></svg>