<?xml version="1.0" encoding="UTF-8"?>
<svg width="110px" height="151px" viewBox="0 0 110 151" version="1.1" xmlns="http://www.w3.org/2000/svg" xmlns:xlink="http://www.w3.org/1999/xlink">
    <!-- Generator: Sketch 60.1 (88133) - https://sketch.com -->
    <title>diquxuanze</title>
    <desc>Created with Sketch.</desc>
    <g id="设备管理" stroke="none" stroke-width="1" fill="none" fill-rule="evenodd">
        <g id="diquxuanze" fill="#4FBBF2" fill-rule="nonzero">
            <path d="M54.968125,131.791262 C61.658125,131.81625 109.763125,93.75125 109.763125,56.84125 C109.763125,19.92125 85.228125,0.15625 54.963125,0.15625 C24.708125,0.15625 0.173125,21.53125 0.173125,56.84125 C0.173125,92.14125 48.273125,131.77125 54.968125,131.791262 Z M54.968125,10.54625 C76.493125,10.54625 99.488125,22.70625 99.488125,56.84125 C99.488125,84.26625 65.678125,114.16125 55.023125,120.60125 C43.838125,113.75125 10.448125,82.61625 10.448125,56.84125 C10.448125,29.15625 28.328125,10.54625 54.968125,10.54625 Z" id="形状"></path>
            <path d="M55.278125,31.64125 C42.028125,31.64125 31.303125,42.49125 31.303125,55.89125 C31.303125,69.28625 42.028125,80.14125 55.273125,80.14125 C68.523125,80.14125 79.248125,69.29125 79.248125,55.89125 C79.248125,42.49625 68.523125,31.64125 55.273125,31.64125 L55.278125,31.64125 Z M55.278125,69.74125 C47.713125,69.74125 41.578125,63.53125 41.578125,55.89125 C41.578125,48.24125 47.713125,42.03125 55.278125,42.03125 C62.823125,42.03125 68.973125,48.24625 68.973125,55.89125 C68.973125,63.53125 62.813125,69.74125 55.273125,69.74125 L55.278125,69.74125 Z M68.663125,150.84125 L41.263125,150.84125 C38.4117079,150.819237 36.1164936,148.492704 36.1330352,145.64125 C36.1330352,142.77125 38.433125,140.44125 41.268125,140.44125 L68.668125,140.44125 C71.498125,140.44125 73.803125,142.77125 73.803125,145.64125 C73.803125,148.51125 71.503125,150.84125 68.663125,150.84125 Z" id="形状"></path>
        </g>
    </g>
</svg>